<svg width="28" height="28" fill="none" xmlns="http://www.w3.org/2000/svg"><path opacity=".24" d="M14 28c7.732 0 14-6.268 14-14S21.732 0 14 0 0 6.268 0 14s6.268 14 14 14z" fill="#000"/><path fill-rule="evenodd" clip-rule="evenodd" d="M16.002 8.666l.534.54a.925.925 0 01.264.653c0 .254-.088.47-.264.647L13.072 14l3.464 3.494a.885.885 0 01.264.647.924.924 0 01-.264.654l-.534.532a.881.881 0 01-.65.273.844.844 0 01-.64-.273l-4.641-4.68A.858.858 0 019.8 14c0-.254.09-.472.27-.654l4.64-4.68a.87.87 0 01.642-.266.91.91 0 01.649.266z" fill="#fff"/></svg>